<svg class="logo-cmoa-bracket" aria-labelledby="logo-title" xmlns="http://www.w3.org/2000/svg" viewBox="0 0 218 218"><title id="logo-title"> Carnegie Museum of Art Logo</title><desc>The Carnegie Museum of Art bracket logo with wordmark</desc><path d="M96.39 0H218v96.39H96.39V218H0V0z"/><path d="M34.25 81.64h-4.72l-.72-2.45H23l-.72 2.45h-4.75l5.38-16.35h5.93zm34.1-12.32h-4.52v12.32H59V69.32h-4.51v-4h13.86zM42.18 81.64h-4.83V65.29h8.08c4.73 0 6.23 1.76 6.23 4.87v2.21a4.13 4.13 0 0 1-2 3.93l3.72 5.34H48l-3-4.37h-2.8zm-18.13-6.07h3.68l-1.86-6.51zM45.31 69h-3.13v4.59h3.13c1.21 0 1.67-.47 1.67-1.42v-1.79c0-.91-.46-1.35-1.67-1.35zm109.33-17c0 2.79-1.69 5.2-6.92 5.2s-6.92-2.42-6.92-5.2v-6.53c0-2.79 1.69-5.2 6.92-5.2s6.92 2.41 6.92 5.2V52zm-88.42 5.15a18.25 18.25 0 0 1-5.79-1l.39-2.09a21 21 0 0 0 5.43.78c2.81 0 3.36-.47 3.36-2.18 0-1.87 0-2-3.85-2.93-4.91-1.24-5.14-2.06-5.14-5.11 0-3.27 1.55-4.33 6.2-4.33a25.09 25.09 0 0 1 5.14.59l-.23 2.18a30.19 30.19 0 0 0-4.88-.49c-3.07 0-3.49.28-3.49 2.15s0 1.9 3.78 2.9c4.94 1.28 5.21 1.9 5.21 5s-.94 4.52-6.14 4.52zM55.11 40.63v11.56c0 2.71-1.65 5-6.79 5s-6.79-2.24-6.79-5V40.63h2.75V52c0 1.81 1 2.83 4 2.83s4-1 4-2.84V40.63h2.75zm52.51 0v11.56c0 2.71-1.64 5-6.79 5S94 54.9 94 52.19V40.63h2.8V52c0 1.81 1 2.83 4 2.83s4-1 4-2.84V40.63h2.75zm-80.76 13.6l5-13.44h3.26L36.4 57h-2.68l-.91-12.34L28.25 57h-2.74l-4.6-12.34L20 57h-2.68l1.24-16.21h3.26l5 13.44zm95.44 0l5-13.44h3.27L131.84 57h-2.68l-.91-12.34L123.68 57h-2.74l-4.6-12.34-.9 12.34h-2.68L114 40.78h3.26l5 13.44zm40.4 2.65h-2.76v-16.3h11.34L171 42.9h-8.3v5h6.11v2.3h-6.11zM88.57 42.94h-8.13v4.55h6v2.3h-6v4.74h8.44v2.31H77.69V40.63h11.16l-.27 2.31zm59.15-.31c-3 0-4.16 1-4.16 3v6.27c0 1.94 1.14 3 4.16 3s4.16-1 4.16-3v-6.33c0-1.95-1.17-3-4.16-3zm-27.63-19.35V31a24.63 24.63 0 0 1-6.17.82c-4.82 0-6.42-1.7-6.42-4.91v-7.17c0-3.49 1.86-4.93 6.78-4.93a26.89 26.89 0 0 1 5.32.5l-.26 2.27a35.78 35.78 0 0 0-5.25-.41c-2.93 0-3.82.6-3.82 2.86v6.57c0 2 .69 2.86 3.69 2.86a19.25 19.25 0 0 0 3.49-.31v-3.34h-2.3v-2.53h4.93zM24.2 29.46A32.53 32.53 0 0 0 29 29l.23 2.24a24.89 24.89 0 0 1-5.06.5c-4.83 0-6.59-1.64-6.59-5v-7c0-3.33 1.76-5 6.59-5a24.89 24.89 0 0 1 5.06.5l-.23 2.3a32.92 32.92 0 0 0-4.79-.41c-2.77 0-3.85.63-3.85 2.83v6.66c0 2.2 1.08 2.83 3.85 2.83zm24.74 2h-2.78l-1.43-3.65h-7.6l-1.4 3.65H33l6.29-16.35h3.39l6.29 16.35zm6.38 0h-2.79V15.11h7.6c4.11 0 5.31 1.6 5.31 4.19v2.58c0 1.89-.65 3.24-2.58 3.84l4 5.75h-3.11L60 26.06h-4.69v5.41zm89.72-14h-7.84V22h5.8v2.33h-5.8v4.78h8.51v2.33h-11.28V15.11h11.25l-.68 2.33zm-70.62 14h-2.66V15.11h3.49l8 13.11V15.11h2.64v16.36h-3.53l-8-13.11v13.11zm27.91-14h-7.84V22h5.84v2.33h-5.84v4.78H103v2.33H91.72V15.11H103l-.66 2.33zm26.09 14h-2.77V15.11h2.77v16.36zM40.95 17.1l-3.07 8.55H44l-3.06-8.55zm19.35.34h-5v6.35h5c1.93 0 2.38-.63 2.38-2.11v-2.14c0-1.48-.45-2.1-2.38-2.1z" fill="#fff"/></svg>